<?xml version="1.0" standalone="no"?>
<!DOCTYPE svg PUBLIC "-//W3C//DTD SVG 20010904//EN"
 "http://www.w3.org/TR/2001/REC-SVG-20010904/DTD/svg10.dtd">
<svg version="1.0" xmlns="http://www.w3.org/2000/svg"
 width="512.000000pt" height="512.000000pt" viewBox="0 0 512.000000 512.000000"
 preserveAspectRatio="xMidYMid meet">
<metadata>
Created by potrace 1.14, written by Peter Selinger 2001-2017
</metadata>
<g transform="translate(0.000000,512.000000) scale(0.100000,-0.100000)"
fill="#000000" stroke="none">
<path d="M2168 4814 c-2 -1 -15 -5 -28 -8 -14 -2 -70 -19 -125 -37 -55 -18
-102 -33 -105 -34 -3 -1 -12 -4 -20 -8 -8 -3 -33 -11 -55 -18 -22 -6 -55 -25
-74 -40 l-34 -28 -51 20 -51 19 -50 -32 c-148 -94 -234 -143 -273 -154 -45
-14 -45 -14 -66 -14 -10 0 -13 -8 -10 -27 3 -22 -2 -32 -25 -48 -25 -16 -29
-25 -25 -50 11 -68 11 -68 -36 -86 -41 -15 -48 -23 -82 -90 -77 -154 -188
-392 -188 -403 0 -6 -9 -24 -19 -40 -11 -16 -17 -35 -14 -42 4 -12 -10 -66
-58 -220 -11 -33 -21 -70 -23 -81 -13 -63 -71 -210 -107 -269 -23 -38 -43 -82
-45 -99 -2 -16 -6 -64 -10 -105 -5 -57 -11 -78 -25 -88 -11 -7 -19 -17 -19
-21 0 -5 -25 -61 -55 -125 l-56 -116 32 -57 c17 -32 40 -72 50 -88 18 -30 19
-100 4 -220 -2 -22 -7 -78 -10 -125 -3 -47 -8 -99 -10 -116 -4 -27 4 -40 66
-105 70 -72 71 -73 66 -119 -3 -25 1 -62 8 -82 6 -20 9 -42 4 -49 -4 -7 -6
-17 -3 -21 3 -4 1 -16 -5 -26 -6 -11 -6 -36 0 -67 5 -28 12 -70 15 -95 3 -25
7 -52 9 -60 3 -8 7 -33 10 -55 12 -81 18 -100 53 -152 29 -44 52 -63 136 -112
l102 -59 18 -59 c20 -68 107 -253 119 -253 4 0 26 -12 50 -27 35 -22 56 -27
122 -30 44 -2 114 -5 155 -7 41 -2 100 -5 130 -5 l55 -2 102 -99 c57 -55 108
-101 115 -101 41 -4 55 -7 73 -12 11 -4 61 -14 110 -22 50 -9 100 -18 113 -20
12 -3 33 -7 47 -10 26 -6 58 7 83 32 7 7 25 16 40 19 66 14 79 24 106 87 15
34 41 91 57 127 31 67 35 134 10 164 -6 7 -8 15 -6 18 3 3 7 30 10 59 2 30 6
77 10 104 3 28 8 64 10 80 2 17 4 30 5 30 1 0 12 128 12 150 1 6 -11 35 -25
67 l-27 56 26 59 c24 52 26 71 27 193 1 74 -2 153 -6 175 -4 22 -10 58 -12 80
-11 91 -39 248 -65 365 l-28 124 34 121 c19 66 38 134 42 150 8 31 7 234 -2
283 -3 15 -21 70 -41 122 -20 52 -45 119 -56 149 l-19 55 29 50 c77 138 98
183 95 201 -2 11 -6 49 -9 85 -3 36 -7 76 -10 90 -13 63 -13 188 0 239 l15 54
-30 34 c-35 40 -35 41 -12 62 9 9 30 31 45 48 l29 31 -27 89 c-15 48 -28 94
-31 101 -2 7 -4 14 -4 17 0 3 -7 22 -14 42 -9 26 -10 47 -4 68 6 17 11 84 12
149 l3 120 -66 50 c-36 28 -77 60 -91 73 -14 13 -36 24 -50 24 -14 1 -35 3
-47 4 -12 1 -24 1 -25 -1z"/>
<path d="M2882 4811 c-18 -3 -47 -18 -65 -33 -17 -14 -58 -47 -90 -73 l-58
-47 2 -117 c0 -64 7 -130 13 -146 10 -23 9 -37 -2 -70 -8 -22 -15 -47 -17 -55
-2 -8 -15 -51 -29 -95 -14 -44 -26 -85 -26 -91 0 -6 12 -24 26 -40 15 -16 35
-39 46 -50 19 -22 19 -22 -11 -57 l-31 -35 14 -67 c8 -38 13 -80 11 -94 -2
-14 -6 -57 -10 -96 -13 -143 -15 -166 -20 -201 -3 -29 3 -49 30 -96 19 -32 35
-61 35 -63 0 -3 13 -26 30 -53 l30 -49 -26 -69 c-14 -38 -38 -100 -52 -139
-14 -38 -30 -76 -35 -82 -5 -7 -10 -78 -12 -158 -2 -141 -1 -151 32 -263 19
-64 36 -128 39 -141 3 -13 5 -26 6 -30 1 -3 -4 -33 -12 -66 -7 -33 -14 -64
-16 -70 -1 -8 -23 -108 -29 -135 -3 -12 -16 -98 -20 -130 -10 -80 -15 -116
-19 -135 -7 -39 -20 -130 -18 -137 1 -4 4 -53 6 -110 3 -82 9 -115 29 -159
l25 -56 -29 -57 c-20 -39 -28 -66 -24 -89 2 -17 7 -59 10 -91 3 -33 7 -73 10
-90 21 -159 26 -238 16 -250 -16 -20 -16 -80 1 -117 8 -19 32 -72 53 -119 42
-93 65 -120 102 -120 13 0 45 -14 70 -31 l45 -31 117 21 c64 12 130 24 146 27
17 3 37 7 45 9 8 2 30 7 48 10 18 3 46 18 61 33 155 152 171 165 198 168 15 1
95 6 178 9 82 4 164 8 180 9 42 2 123 45 145 76 30 42 66 121 95 205 29 83 37
93 114 135 95 52 119 71 155 125 20 30 39 72 41 92 3 21 12 74 20 118 8 44 17
98 20 120 4 22 8 47 9 55 2 8 -2 35 -9 60 -9 34 -9 52 0 73 6 16 10 52 8 82
l-3 53 70 71 c61 62 70 75 65 100 -3 16 -7 66 -10 112 -3 46 -7 104 -10 129
-2 25 -7 77 -10 116 l-7 72 52 90 c33 58 49 96 44 104 -5 7 -9 15 -9 18 -1 3
-22 50 -48 104 -26 54 -47 102 -47 105 0 4 -9 14 -20 24 -11 9 -20 29 -21 44
0 16 -2 37 -4 48 -2 11 -6 46 -9 77 -4 43 -15 71 -45 118 -31 47 -78 158 -86
200 -2 12 -37 126 -42 140 -3 8 -8 23 -10 33 -1 10 -15 54 -29 98 -14 44 -23
86 -20 94 3 8 1 15 -4 15 -5 0 -7 7 -4 15 4 8 2 15 -3 15 -5 0 -19 32 -32 70
-13 39 -30 75 -38 81 -7 6 -13 16 -13 21 0 6 -37 86 -82 178 l-81 169 -49 20
c-43 18 -48 23 -43 46 3 14 7 35 10 48 3 17 -3 27 -25 42 -17 11 -28 25 -25
32 7 20 -23 42 -66 49 -21 4 -60 20 -84 35 -25 16 -50 29 -55 29 -6 0 -10 5
-10 10 0 6 -7 10 -15 10 -8 0 -15 3 -15 8 0 4 -17 16 -37 27 -21 11 -40 22
-43 25 -3 4 -21 16 -41 28 l-36 22 -51 -21 -51 -21 -39 30 c-32 26 -86 52
-137 66 -43 12 -195 59 -215 67 -34 13 -78 16 -118 10z"/>
</g>
</svg>
